<svg width="32" height="33" viewBox="0 0 32 33" fill="none" xmlns="http://www.w3.org/2000/svg">
<g clip-path="url(#clip0_12_26029)">
<path d="M32 28.3855C32 30.8744 30.0444 32.83 27.5556 32.83H4.44444C1.95556 32.83 0 30.8744 0 28.3855V5.2744C0 2.78551 1.95556 0.829956 4.44444 0.829956H27.5556C30.0444 0.829956 32 2.78551 32 5.2744V28.3855Z" fill="#3B5998"/>
<path d="M25.2447 17.7188H22.2224V29.2743H17.778V17.7188H15.1113V14.1632H17.778V12.0299C17.778 8.91879 19.1113 7.05212 22.7558 7.05212H25.778V10.6077H23.7336C22.3113 10.6077 22.2224 11.141 22.2224 12.1188V14.1632H25.778L25.2447 17.7188Z" fill="white"/>
</g>
<defs>
<clipPath id="clip0_12_26029">
<rect width="32" height="32" fill="white" transform="translate(0 0.829956)"/>
</clipPath>
</defs>
</svg>
