<svg width="24" height="24" viewBox="0 0 24 24" fill="none" xmlns="http://www.w3.org/2000/svg">
<path opacity="0.25" fill-rule="evenodd" clip-rule="evenodd" d="M9.5 21H14.5C14.2239 21 14 20.7761 14 20.5V15.5C14 15.2239 13.7761 15 13.5 15H10.5C10.2239 15 10 15.2239 10 15.5V20.5C10 20.7761 9.77614 21 9.5 21Z" fill="#FF5319"/>
<path opacity="0.75" d="M4 13L12 6L20 13V20.5C20 20.7761 19.7761 21 19.5 21H14.5C14.2239 21 14 20.7761 14 20.5V15.5C14 15.2239 13.7761 15 13.5 15H10.5C10.2239 15 10 15.2239 10 15.5V20.5C10 20.7761 9.77614 21 9.5 21H4.5C4.22386 21 4 20.7761 4 20.5V13Z" fill="#FF5319"/>
<path d="M2.32678 11.3773C2.14614 11.1689 2.16835 10.8536 2.37643 10.6726L11.6725 2.58566C11.8607 2.42196 12.1407 2.42197 12.3289 2.58569L21.6234 10.6726C21.8315 10.8536 21.8537 11.1689 21.6731 11.3773L21.0276 12.1219C20.8467 12.3306 20.5307 12.3531 20.3221 12.172L12.3284 5.23433C12.1404 5.07116 11.861 5.07115 11.673 5.2343L3.67771 12.172C3.46907 12.3531 3.15314 12.3306 2.9722 12.1219L2.32678 11.3773Z" fill="#FF5319"/>
</svg>
