<svg width="32" height="33" viewBox="0 0 32 33" fill="none" xmlns="http://www.w3.org/2000/svg">
<g clip-path="url(#clip0_12_26017)">
<path d="M16 0.829956C29.3333 0.829956 32 3.49662 32 16.83C32 30.1633 29.3333 32.83 16 32.83C2.66667 32.83 0 30.1633 0 16.83C0 3.49662 2.66667 0.829956 16 0.829956Z" fill="url(#paint0_linear_12_26017)"/>
<path fill-rule="evenodd" clip-rule="evenodd" d="M15.9996 9.17818C18.4919 9.17818 18.7868 9.18785 19.7712 9.23265C20.681 9.27412 21.1752 9.42605 21.5042 9.55385C21.94 9.72318 22.2508 9.92545 22.5775 10.2518C22.9043 10.5786 23.1066 10.8894 23.2755 11.3251C23.4033 11.6541 23.5552 12.1483 23.5967 13.0582C23.6416 14.0422 23.6512 14.3375 23.6512 16.8297C23.6512 19.322 23.6416 19.6168 23.5967 20.6012C23.5552 21.5111 23.4033 22.0053 23.2755 22.3343C23.1062 22.77 22.9039 23.0808 22.5775 23.4076C22.2508 23.7344 21.94 23.9367 21.5042 24.1056C21.1752 24.2334 20.681 24.3853 19.7712 24.4268C18.7872 24.4717 18.4919 24.4813 15.9996 24.4813C13.5074 24.4813 13.2122 24.4717 12.2282 24.4268C11.3182 24.3853 10.824 24.2334 10.495 24.1056C10.0594 23.9363 9.7485 23.734 9.42177 23.4076C9.09504 23.0808 8.8927 22.77 8.72377 22.3343C8.59597 22.0053 8.44404 21.5111 8.40257 20.6012C8.35777 19.6172 8.3481 19.322 8.3481 16.8297C8.3481 14.3375 8.35777 14.0426 8.40257 13.0582C8.44404 12.1483 8.59597 11.6541 8.72377 11.3251C8.8931 10.8894 9.09537 10.5786 9.42177 10.2518C9.7485 9.92512 10.0594 9.72278 10.495 9.55385C10.824 9.42605 11.3182 9.27412 12.2282 9.23265C13.2125 9.18785 13.5074 9.17818 15.9996 9.17818ZM15.9996 7.49658C13.4648 7.49658 13.147 7.50732 12.1514 7.55292C11.1582 7.59812 10.4798 7.75592 9.88597 7.98672C9.2721 8.22532 8.75157 8.54432 8.2329 9.06332C7.71424 9.58205 7.39484 10.1025 7.15664 10.716C6.92584 11.3099 6.76804 11.9883 6.72284 12.9815C6.67724 13.977 6.6665 14.2949 6.6665 16.8297C6.6665 19.3646 6.67724 19.6824 6.72284 20.6779C6.76804 21.6712 6.92584 22.3495 7.15664 22.9434C7.39524 23.5573 7.71424 24.0778 8.23324 24.5965C8.7523 25.1155 9.27244 25.4345 9.88637 25.6731C10.4798 25.9039 11.1586 26.0617 12.1518 26.1069C13.1473 26.1525 13.4652 26.1632 16 26.1632C18.5348 26.1632 18.8527 26.1525 19.8482 26.1069C20.8414 26.0617 21.5202 25.9039 22.1137 25.6731C22.7276 25.4345 23.2481 25.1155 23.7668 24.5965C24.2858 24.0774 24.6048 23.5573 24.8434 22.9434C25.0742 22.3499 25.232 21.6712 25.2772 20.6779C25.3228 19.6824 25.3336 19.3646 25.3336 16.8297C25.3336 14.2949 25.3228 13.977 25.2772 12.9815C25.232 11.9883 25.0742 11.3096 24.8434 10.716C24.6048 10.1022 24.2858 9.58165 23.7668 9.06298C23.2477 8.54392 22.7276 8.22492 22.1137 7.98638C21.5194 7.75592 20.8411 7.59812 19.8478 7.55292C18.8524 7.50732 18.5345 7.49658 15.9996 7.49658ZM15.9996 12.0372C13.3526 12.0372 11.2071 14.183 11.2071 16.8297C11.2071 19.4764 13.353 21.6222 15.9996 21.6222C18.6464 21.6222 20.7922 19.4764 20.7922 16.8297C20.7922 14.183 18.6467 12.0372 15.9996 12.0372ZM15.9996 19.9406C14.2814 19.9406 12.8887 18.5476 12.8887 16.8297C12.8887 15.1114 14.2817 13.7188 15.9996 13.7188C17.7176 13.7188 19.1106 15.1118 19.1106 16.8297C19.1106 18.548 17.718 19.9406 15.9996 19.9406ZM22.1018 11.8475C22.1018 12.466 21.6004 12.9674 20.9819 12.9674C20.3634 12.9674 19.8619 12.466 19.8619 11.8475C19.8619 11.229 20.3634 10.7275 20.9819 10.7275C21.6004 10.7275 22.1018 11.229 22.1018 11.8475Z" fill="white"/>
</g>
<defs>
<linearGradient id="paint0_linear_12_26017" x1="28.5403" y1="4.60089" x2="3.36279" y2="29.1536" gradientUnits="userSpaceOnUse">
<stop stop-color="#BA00B2"/>
<stop offset="0.5" stop-color="#F40000"/>
<stop offset="1" stop-color="#FFA800"/>
</linearGradient>
<clipPath id="clip0_12_26017">
<rect width="32" height="32" fill="white" transform="translate(0 0.829956)"/>
</clipPath>
</defs>
</svg>
