<svg width="20" height="21" viewBox="0 0 20 21" fill="none" xmlns="http://www.w3.org/2000/svg">
<g clip-path="url(#clip0_1_10)">
<path d="M5.95 2.34009C8.51792 2.34009 10 4.49243 10 4.49243C10 4.49243 11.485 2.34009 14.05 2.34009C16.705 2.34009 19 4.41009 19 7.29009C19 11.5206 12.5604 15.9598 10.3651 17.9004C10.1582 18.0833 9.84179 18.0833 9.63488 17.9004C7.44056 15.961 1 11.5204 1 7.29009C1 4.41009 3.295 2.34009 5.95 2.34009Z" fill="#8967F0"/>
<path d="M1 7.20495C1 4.54306 3.15017 2.34009 5.86486 2.34009C7.98685 2.34009 9.35921 3.69885 10 4.52682C10.6408 3.69885 12.0132 2.34009 14.1351 2.34009C16.8506 2.34009 19 4.54311 19 7.20495C19 8.36996 18.5328 9.52631 17.8534 10.6051C17.1716 11.6877 16.252 12.7304 15.29 13.6778C13.9567 14.9909 12.4757 16.1788 11.4134 17.0308C10.9618 17.393 10.5859 17.6945 10.3293 17.9191C10.1407 18.084 9.85926 18.084 9.67075 17.9191C9.41405 17.6945 9.03815 17.393 8.58659 17.0308C7.52431 16.1788 6.04326 14.9909 4.70997 13.6778C3.74802 12.7304 2.82836 11.6877 2.14659 10.6051C1.46724 9.52631 1 8.36996 1 7.20495ZM5.86486 3.34009C3.70929 3.34009 2 5.08847 2 7.20495C2 8.10752 2.36553 9.07616 2.99277 10.0722C3.61759 11.0643 4.47833 12.0461 5.41165 12.9653C6.71033 14.2443 8.08423 15.3451 9.13396 16.1862C9.45728 16.4453 9.74985 16.6797 10 16.8871C10.2501 16.6797 10.5427 16.4453 10.866 16.1862C11.9158 15.3451 13.2897 14.2443 14.5883 12.9653C15.5217 12.0461 16.3824 11.0643 17.0072 10.0722C17.6345 9.07616 18 8.10752 18 7.20495C18 5.08842 16.2914 3.34009 14.1351 3.34009C12.0406 3.34009 10.8181 5.0422 10.5033 5.55037C10.2727 5.92259 9.72727 5.92258 9.4967 5.55036C9.1819 5.04219 7.95944 3.34009 5.86486 3.34009Z" fill="#8967F0"/>
</g>
<defs>
<clipPath id="clip0_1_10">
<rect width="20" height="20" fill="white" transform="translate(0 0.340088)"/>
</clipPath>
</defs>
</svg>
