<svg width="32" height="33" viewBox="0 0 32 33" fill="none" xmlns="http://www.w3.org/2000/svg">
<g clip-path="url(#clip0_12_26021)">
<path d="M16 0.829956C29.3333 0.829956 32 3.49663 32 16.83C32 30.1633 29.3333 32.83 16 32.83C2.66667 32.83 0 30.1633 0 16.83C0 3.49663 2.66667 0.829956 16 0.829956Z" fill="url(#paint0_linear_12_26021)"/>
<path d="M7.86098 16.6958C12.5253 14.6637 15.6356 13.3239 17.1918 12.6766C21.6352 10.8285 22.5585 10.5074 23.1603 10.4967C23.2927 10.4945 23.5886 10.5273 23.7803 10.6829C23.9421 10.8142 23.9867 10.9916 24.008 11.1162C24.0293 11.2407 24.0559 11.5243 24.0348 11.746C23.794 14.276 22.7521 20.4156 22.2221 23.2492C21.9978 24.4482 21.5561 24.8502 21.1286 24.8896C20.1995 24.9751 19.4939 24.2755 18.594 23.6856C17.1858 22.7625 16.3902 22.1879 15.0233 21.2871C13.4436 20.2461 14.4677 19.6739 15.3679 18.7389C15.6035 18.4942 19.6974 14.7705 19.7766 14.4327C19.7865 14.3905 19.7957 14.233 19.7021 14.1498C19.6086 14.0667 19.4705 14.0952 19.3709 14.1177C19.2296 14.1498 16.98 15.6367 12.622 18.5785C11.9835 19.017 11.4051 19.2306 10.8869 19.2194C10.3156 19.2071 9.21669 18.8964 8.39975 18.6309C7.39771 18.3051 6.60136 18.133 6.67071 17.5798C6.70683 17.2917 7.10359 16.997 7.86098 16.6958Z" fill="white"/>
</g>
<defs>
<linearGradient id="paint0_linear_12_26021" x1="16" y1="0.829956" x2="16" y2="32.5925" gradientUnits="userSpaceOnUse">
<stop stop-color="#2AABEE"/>
<stop offset="1" stop-color="#229ED9"/>
</linearGradient>
<clipPath id="clip0_12_26021">
<rect width="32" height="32" fill="white" transform="translate(0 0.829956)"/>
</clipPath>
</defs>
</svg>
